/* XPM */
static const char *font_xpm[] = {
/* columns rows colors chars-per-pixel */
"465 18 56 1 ",
"  c #1D1D1D",
". c gray15",
"X c gray17",
"o c #2D2D2D",
"O c #323232",
"+ c gray21",
"@ c gray23",
"# c gray24",
"$ c #434343",
"% c gray27",
"& c gray29",
"* c #4E4E4E",
"= c gray32",
"- c gray34",
"; c #585858",
": c #5F5F5F",
"> c #606060",
", c #646464",
"< c #686868",
"1 c #6C6C6C",
"2 c gray45",
"3 c #767676",
"4 c gray48",
"5 c gray49",
"6 c #838383",
"7 c #848484",
"8 c #898989",
"9 c gray55",
"0 c gray57",
"q c #979797",
"w c #9B9B9B",
"e c #9D9D9D",
"r c gray63",
"t c #A5A5A5",
"y c #A9A9A9",
"u c #AEAEAE",
"i c gray70",
"p c #B6B6B6",
"a c gray72",
"s c gray75",
"d c gray76",
"f c #C6C6C6",
"g c #CBCBCB",
"h c gray80",
"j c LightGray",
"k c gray83",
"l c #D8D8D8",
"z c gainsboro",
"x c #E2E2E2",
"c c gray90",
"v c #E9E9E9",
"b c #EEEEEE",
"n c gray94",
"m c #F4F4F4",
"M c #F8F8F8",
"N c gray100",
/* pixels */
"NNNNNNNNNNNNNNNNNNNNNNNNNNNNNNNNNNNNNNNNNNNNNNNNNNNNNNNNNNNNNNNNNNNNNNNNNNNNNNNNNNNNNNNNNNNNNNNNNNNNNNNNNNNNNNNNNNNNNNNNNNNNNNNNNNNNNNNNNNNNNNNNNNNNNNNNNNNNNNNNNNNNNNNNNNNNNNNNNNNNNNNNNNNNNNNNNNNNNNNNNNNNNNNNNNNNNNNNNNNNNNNNNNNNNNNNNNNNNNNNNNNNNNNNNNNNNNNNNNNNNNNNNNNNNNNNNNNNNNNNNNNNNNNNNNNNNNNNNNNNNNNNNNNNNNNNNNNNNNNNNNNNNNNNNNNNNNNNNNNNNNNNNNNNNNNNNNNNNNNNNNNNNNNNNNNNNNNNNNNNNNNNNNNNNNNNNNNNNNNNNNNNNNNNNNNNNNNNNNNNNNNNNNNNNNNNNNNNNNNNNNNNNNNNNNNNNNNNNNNNNNNNN",
"NNNnnvvbNNNNNbvcvvcvNNNNNNMcczzxMNNNNczxcxxvNNNNNbccvccxcvNNNbccvccxxvNNNNmvvccvNNNNNnNNNNNNmnNNNMcxzzcMNNNNNNNNNNNNbbNNNbNNNNNNbbNNmcmNNNNNNNNNMvMNNNNNmmNNNbNNNNNNmnNNNNMccxxbNNNNNvvcvccbNNNNNNmcvzcbNNNNNvcvvxvbNNNNNNmcvzccNNNNnczxczxzxbNNmvNNNNNNbnNNmbNNNNNNbnNNnbNNNNNNbnNNNbbNNNNNNvmNNbvNNNNNMcnNNvxzxxzzxxmNNNNbcxzxnNNNNNNNMvnNNNNNNNNvxzlzbNNNNNNvxxzcnNNNNNNNNNNbmNNNNncxvccxcvMNNNNnvcxcnNNNNvzzxxzxzcmNNNNvvcxvmNNNNNNvvvxvMNNNNNNNNNNNNNNNNNNNNNNNNNNNNNNNNNNNN",
"NNf::&%;sNNNk>%%;%%=dNNNNNi;*##&sNNNd;#$=#$=fNNNf>$&-$%+%>jNs>@%-#$+$,hNNNr>-$%>dNNNi2uMNNNb03hNNt-@@@,fNNNNNNNNNNNx84kNu,uNNNNz74kMy>tMNNNNNNNMu>yNNNNc85xNp,uNNNNc73cNNmt==$$<kNNNp*$%-$%<lNNNNnw-=$&<zNNNi*%*;$&,zNNNNb9-=@&,zNNMw*@%=+#+&4vmq<dNNNNl36vM91gNNNNl27bM91hNNNNh28vNn42jNNNNd,wbv42hNNNNs>ebv4%+&&#@@$emNNz4=&#$0cNNNNNNd20cNNNNNNh3*$@$9vNNNNh3*%@&0nNNNNNNNNg10MNNx6$#=*#$@;rNNNj2;*@=9mNNk3$@*&+#@-rNNNh,-*@=0MNNNNh>-*@-qMNNNNNNNNNNNNNNNNNNNNNNNNNNNNNNNNNNN",
"Nvd88647sxNNl<,38446sxNNNzi66233pzMNh2>26336fnNNf<:3734249xNs<:3633230zNMxy87347svNNa4iNNNNnw5jNNd6-*>8kNNNNNNNNNNNc96lNp2iNNNmgercMi<yMNNNNNNNNi,qxNNmf66cNs2iNNNNc96vNNku56338fbNNa:,47448gvNNMkt56348hbNNp:<58358hbNNNxr76147kmNMa513>&<14enMw2fNNNNz48bMw3hNNNNl40nMq4jNNNNj3qbNn63jNNNNf2rnb63jNNNNs1rnme41442<:=rmNbf05423ejmNNNNcy1qvNNNNNcd94322ehnNNvd95423elmNNNNNNvu2wNNNx8-<552337sNNbf96526uNNNcw215412;,tNNvf86626rzNNNvf77616rxMNNNNNNNNNNNNNNNNNNNNNNNNNNNNNNNNNN",
"k<9zMMmx9>jNh=5lmMmx8,jNg>8lnbbl7>hMg3wlnnnxt0xNp-7lmmnnmmNNu=7lnnnbnmNNi<wlnmmk83jNy;eMNNNc5>fNNNx3%ecNNNNNNNNNNNNl3,gNr=eNNvq1inNMw&qmNNNNNNNMeOO;acq$O>lNy*eNNNNz2,lNi:ecmnbg43vMt*qcmmng22cmi>rcmmng32bMr*evMnng32vNs9svnnbjwenNNbbj2$pcnmNm6*aNNNNj:1vm5-dNNNNh:3vm4;fNNNNg;5cNb<:gNNNNp-8bv<;fNNNNi=9bNmbbbnbxe&0bv51abnnct:rmNNl3Oo4xNNNNx61avbbze:wmz71svnbct,wNNNNNk3@O5mNNk2:avnnbnmNNz74gnmnmMNNNNmbvbbvlw=0mz44hnmnxt<tNz24hnmnzr>uNNNNNNNNNNNNNNNNNNNNNNNNNNNNNNNNNN",
"l2eMNNNNr2lNl2rMNNNMe1kNh2rnNNNmi9zNp%6bNNNn3%fNf2ymNNNNNNNNs2ymNNNNNNNNa3umNNNmiexNp4iNNNNbq5hNNNMq1sNNNNNNNNNNNNNc96kNp2iNMktqjNNNu<yMNNNNNNNMi;:6sht2;5cNa<wxNNNc86cNs1iNNNNc85vNa1pNNNNx74vNp1pNNNNx75bNp2sNNNNc55vm9%yNNNNz33bNNNNb9,jNNNNmw1fNNNNz47bMq2gNNNNl49bM04jNNNNj40bNMt0dvNNcp8pmme9dcNNcp8amNNNNNNNxi8sMb84jNNNNa2tMNNcw>=qvNNNNbtezNNNzi8pMbtwzNNNNs1rNNNNbh0,;qMNNx93axxxcnNNNx98xNNNNNNNNNNNNNNMlu0aNz57vNNNNa3yNx48vNNNNp2iNNNNNNNNNNNNNNNNxzznNNNNNNNNNNNNNN",
"h=6mNNNm9=hNh=8mNNNM7*gNd*8nNNNNMmNNi%7bNNNm4%fNa-qnNNNNNNNNu-qbNNNNNNNNt-wmNNNNNMNNy;enNNNc5>fNNNm6=uNNNNNNNNNNNNNz4,gNr-evu<rbNNNMe&eMNNNNNNNMr&9je1rs1<zNt@@;sNNl1,zNy*rNNNNl<>xMt=rNNNNk<:cmr*tNNNNx<>cMr=uNNNNl,:cm0%uNNNNNvbNNNNNv3&gNNNNm7-aNNNNk>1vn5;sNNNNh:3vm4;fNNNNg;5cNNMj<4kh25hMNNmh<5kh25hMNNNNNNNg27jNNv1>gNNNNu=0nNNNnt-6cNNNNNMmNNNf16kNNNMmNNNNNu=9MNNj58gy-6nNNz1o+**#*0MNNl21lNNNNNNNNNNNNNNf<5zNNk,2zNNNMu-wMk>2xNNNMt=eNNNNNNNNNNNNNNNh=#$eMNNNNNNNNNNNNN",
"z4qxmMmcw4zNz5exmMmcy0xNj4ymNNNNNNNNg4yMNNNMr4lNh6rxmmmmNNNNf5rlnbnnNNNNs6imNmmmmMNNs6yxmmnl08kNNNNr4fNNNNNNNNNNNNNvw9zNa5ylaqgNNNNNp3pNNNNNNNNNa3pba7dzw0cNs<18gmNvq9vNs4aNNNNvq8bNd3yvmnbjwwnMa5sNNNNv98nNs3pbMnnkwwnNs9svnnnmNNNNNNNmw3lNNNNMr5hNNNNx80nMr5jNNNNl6wmMw6kNNNNl7ebNNNbwwjgqynNNNNbwwhfqybNNNNNNNnfqinNNn08lNNNNd4uMNNNNg6evNNNNNNNNNnd0umNNNNNNNmncs9aNNMhwivh6rMNNbt336536tvNNcq8hnmnmMNNNNNNNNvd0yNNNveelnnncsqdNveelmnnxu4pNNmbbbvvvvbMNNNj<-:yMNNNNNNNNNNNNN",
"l2<37542<2lNz2<48545dbNNj5ymNNNNNNNNh5uMNNNMr4lNg3,37346kNNNd2>26236jNNNs5pbd6424wxNd3,47331,6kNNNMr4dNNNNNNNNNNNNNvw8zNs1,6sbNNNNNNp3pNNNNNNNNNa3pbp7dzw9cNs3ylaejzq9vNd4aNNNNv08bNs,<47338jmNNa4sNNNNv98nNa,<57248lmNNNxr66149vNNNNNNmw2lNNNNMr4hNNNNx70bMr5jNNNNz7wnMw6kNNNNl7ebNNNNmle0hmNNNNNNnkw0jmNNNNNNNctejMNNNm07lNNNNd4umNNNNh6ebNNNNNNNNxeekMNNNNNNNxw33txNNbywjMNh5rmNNNMmnnnnbs0aNv0>16526uNNNNNNNzqqzMNNNNmh87526rvNNNmh77522,1aNv04<53<<15dNNNj<;:tMNNNNNNNNNNNNN",
"g$+#;&$#O#gNg%+$;%%=uvNNd*8bNNNNNNNNa=8bNNNm6=gNp&O%-$%-dNNNu&X$=##-sNNNt-ecy=%@O;gNy&O%-$#+o;fNNNM7=iNNNNNNNNNNNNNz4,hMe$O=yvNNNNNMe*wmNNNNNNNMr&wxy2pj3<lNt=ecy1ts,>zMy*eNNNNl<>xMtO+%=$$,lNNmr*tNNMNz<>cMr@+%%X#,xNNNNn9-=@&;gnNNNNNv3&gNNNNn7-aNNNNj:1vm5-sNNNNh:2vm4;fNNmNg:4cNNNNnj41dmNNNNNNNl1>hNNNNNNNmf45lNNNNv1>gNNNNu=0nNNNNs;5xNNNNNNNns37zNNNNNNNNk2#$6lNNl3>abbu=2zNNNNNNNNNNi-0Nl<o@=&@*6zNNNNNbs<4vNNNNNna:-&@=7cNNNNj:-*+#o#eMz,$O*&O@O=uNNNh=#%emNNNNNNNNNNNNN",
"k18jvvck9<lNk19kvvclt9xNh1emNNNNNNNNf1tmNNNMq1kNf20jccccNNNNs20hcxxcMNNNp2umMbch84jNa3ekvxcg75hNNNMw1sNNNNNNNNNNNNNc96kNp<wgiqgNNNNNu<yNNNNNNNNNi<uNNbNx97xNa1iNMlr2:4cNa<iNNNNx75vNa,ezvxxvNNNMi<pnsqlx74bNp<tg0,pcNNNNNNnccxxf0wnNNNNb9<kNNNNMw1fNNNNz48bmq3hNNNNk49nm03hbyqzh40bNNNnwwgd0ynNNNNNNx65lNNNNNNvewgvNNNNNb73kNNNNs<tMNNNNf3qvNNNNNNzewgvNNNNNNNNNNvxki9aNv9-<64,=-6aNNNNNNNNNs3tNx84dccxli9aNNNlqrjvNNNNNvewgccxli9dNNNNvvcxke<iNNcxzxzlzlxmNNNNxzznNNNNNNNNNNNNNN",
"h=6nNNNm8*gNh=8mNNNm7*gNd*8bNNNNMnNNa=9nNNNm5=gNa-qnNNNNNNNNu=qbNNNNNNNNr-wnNNNv5:fNy;emNNNx4>fNNNm6=uNNNNNNMnMNNNNl4,gNr-rcy<rvNNNMw&wMNNNNNNNMr&wNNNNz3,zNy*rNNv0#o:zMy*rNNNNl1>xMt*rNNNNNNNNme*tce,if33vMr=ucw,abNNNNNmNNNNNk>>xNNNNb4%gNNNNn7=aNNNNk:<vm9,ibNNnd<8bm4;fz3-gd;4cNNMj<4kh25hMNNNNNl,>jNNNNNmg16lNNNNNNv1:gNNNNu=0nNNNNa:6xNNNNNns27lNNNNNNNMmNNNNNy=9Mc7$#=&+XX=eNNNMNNNNNi-9Ml21kNNNMu-9MNna>8vNNNNNNk>1zNNNmu-wNNNNNNNNmt=wMNNNNNNNNNNNNNNNbvvMNNNNNNNMvvvMNN",
"k2wMNNNNr1kNl2eMNNNMe1kNh2enNNNMi9zNg1rmNNNmw1kNf2ymNNNNNNNNa3ymNNNNNNNNa2ymNNNnq4kNa4iMNNNbq4jNNNMw1sNNNNNNs9smNNNc06kNi2iMMktwkNNNu<yMNNNNNNNNi<uNNNNc97xNa1iNNNmf55cNa1iNNNNx85vNa<pNNNNNNNNNp1pNmje9hbNNi2sNmkrwvNNNd0jNNNNz54vNNNNb9,jNNNNMw2fNNNNl48bNmkqwxvr9hbNM04jc92jh4qbNmr0dcNNca8pmNNNNx75lNNNNmr9scNNNNNNNb75jNNNNa2tmNNNNf4qcNNNNnt9dvNNNNNNNvtwzNNNNa2rNNncccxu<6kMNbyrvNNNNs3rNc88xNNNNs2eNce0fvNNNNNNNz57vNNNNa2yNNNNNNNNNp2iNNNNNNNNNNNNNNNl623aNNNNNNNj412aMN",
"h=6mNNNm8*hNh*6lMmmx8>jNg>8lbbbk6:hMa*5knnnl7,jNa-7lmnnnnmNNu=qbNNNNNNNNi<wznmnk2:gNy;eMNNNc5>dNNNz2&ecNNNNMt>qlbbvg54kNr=eNNbq1inNNe&9zbbbbbmNMr&eNNNNz3<lNy*rNNNNl2,zNp>ecmnbg33cMy*rNNNNNNNNMu>rcbj6,fmNMr=uNNv7,hMNMt,ycnbbf13vNNNNv3&gNNNNn0,ucnbbd16vNNb42dg33xNNm91pj6>aa<9bNb<;gNNNNp=9vNNNNl<>jNNNNv<-ucbbbbbNNv61abnbvt:rmNNNnt=2gMNNNz2;ucbbbbbMNx61svnnct>wNNNNNNNa;5nNNx73fbnnvy<eNx64gnmnct,emj,,kNNNNNNNNl43hnmnxt<tNNNNmnnnzr>uNNNNNNNNNNNNNNNf@.X9mNNNNNNsO .9nN",
"k2eMNNNNr2lNl<>38445sxNNNxi76223alNNf,:27344dcNNg<>3744159zNs3tmNNNNNNNNMxt87341:3kNa4iNNNNbq6jNNd7-&>9kNNNNnkr45218abNNp2iNNNmhwecMi:;152112wxMp1uNNNNc97xNs1iNNNNc86cNNlu56349fbNNa1pNNNNNNNNNMkr668agwwmNp3sNNNngwwmNmje76147gvNNNNNb9,kNNNNNnj076159hbNNNNbkr8fvNNNNml0qggqqhnNNn74jNNNNf2rbNNNNx76lNNNNv6-:442123aNNbg95522ejnNNNcw>*=3sMNNv7=,442<14pNNvd95423ekmNNNNNNNg4wMNNNbd96525rzMNNbd07525elmNl66zNNNNNNNNNvd86516rzMNNNx97525rxMNNNNNNNNNNNNNNNj;&*rMNNNNNNg=$&tmN",
"k<qMNNNNe,kNk:%%-&%=dNNNNNi;=##*sNNNd;#$-#$=fNNNd:$&-$%@%>jNa1tmNNNNNNNNNMr>-$$#$1kNp2uMNNNb93gNNy-@@@,fNNNNNbq**#@,sNNNu<uNNNNz75kNy*@$=$+@@2lMy>yNNNNc85xNp,uNNNNc73xNNmr==$#<kNNNp>iNNNNNNNNNNnq=-,fl53bNu<aNNNNz52vNNb9-=@%>zNNNNNNb8:jNNNNNNb5;=+&1zNNNNNNb8,jNNNNNNb53lz54xNNNn52jNNNNd,qbNNNNz43kNNNNb4%+&&@+@%rnNNz4=&#$9vNNNNl3#@O&enNNx5#@&%@+@&wmNNh3*%#&0nNNNNNNNNg10mNNNNh2=&#*9MNNNNj2-*#=9mNNl45zNNNNNNNNNNh>-*@-0MNNNNj:-*@-qMNNNNNNNNNNNNNNNNh=#%rmNNNNNNd&@$emN",
"NnMNNNNNMnNNNbvcbccvNNNNNNMcczzxMNNNNvzxcxccNNNNNbccvccxcvNNNvMNNNNNNNNNNNmbvcccvnNNNnNNNNNNmnNNNmcxzzvNNNNNNNbzxxzvNNNNNbMNNNNNbbNNMxzxxxzzzvNNMvMNNNNNnnNNNbNNNNNNnnNNNNMvcxcvNNNNNbMNNNNNNNNNNNmcvvNNmnNNNbNNNNNNbbNNNNnccxxvNNNNNNNNbxNNNNNNNNbccxcvNNNNNNNNnvNNNNNNNNnbNNnbNNNNNbbNNNNNNcnNNNNNNvvNNNNNNvxzxxzzxxnNNNNbcxzxnNNNNNNbxzzxnNNNNbzzzxzzzznNNNNvxxzxmNNNNNNNNNNbmNNNNNNvcxxcnNNNNNNnvvcvmNNNNbvNNNNNNNNNNNNvccxcmNNNNNNvccxcmNNNNNNNNNNNNNNNNNNczxnNNNNNNNMzlznNN",
"NNNNNNNNNNNNNNNNNNNNNNNNNNNNNNNNNNNNNNNNNNNNNNNNNNNNNNNNNNNNNNNNNNNNNNNNNNNNNNNNNNNNNNNNNNNNNNNNNNNNNNNNNNNNNNNNNNNNNNNNNNNNNNNNNNNNNNNNNNNNNNNNNNNNNNNNNNNNNNNNNNNNNNNNNNNNNNNNNNNNNNNNNNNNNNNNNNNNNNNNNNNNNNNNNNNNNNNNNNNNNNNNNNNNNNNNNNNNNNNNNNNNNNNNNNNNNNNNNNNNNNNNNNNNNNNNNNNNNNNNNNNNNNNNNNNNNNNNNNNNNNNNNNNNNNNNNNNNNNNNNNNNNNNNNNNNNNNNNNNNNNNNNNNNNNNNNNNNNNNNNNNNNNNNNNNNNNNNNNNNNNNNNNNNNNNNNNNNNNNNNNNNNNNNNNNNNNNNNNNNNNNNNNNNNNNNNNNNNNNNNNNNNNNNNNNNNNNNNNNNNNNNN"
};
